<svg width="28" height="28" viewBox="0 0 28 28" fill="none" xmlns="http://www.w3.org/2000/svg">
<path d="M13.5937 0.968744C13.0631 0.984256 12.5144 1.04415 11.9687 1.12499H11.9375C6.61282 1.99433 2.30243 6.18995 1.21874 11.5C0.894516 13.013 0.914373 14.423 1.12499 15.8125C1.13232 15.8167 1.12397 15.8365 1.12499 15.8437C1.45426 18.1912 4.49906 19.2197 6.21874 17.5C7.45046 16.2683 9.26828 16.2683 10.5 17.5C11.7317 18.7317 11.7317 20.5495 10.5 21.7812C8.78031 23.5009 9.80881 26.5457 12.1562 26.875C12.1635 26.876 12.1833 26.8677 12.1875 26.875C13.567 27.0841 14.9679 27.0985 16.4687 26.7812C16.4785 26.7794 16.4902 26.783 16.5 26.7812C21.824 25.79 26.0076 21.3753 26.875 16.0625V16.0312C28.0068 8.39149 22.4229 1.71925 15.1562 1.03124C14.6372 0.9821 14.1244 0.953231 13.5937 0.968744ZM13.625 2.96874C14.0774 2.95247 14.5263 2.95949 14.9687 2.99999C21.1634 3.56706 25.8744 9.21474 24.9062 15.75C24.1752 20.2275 20.587 23.9929 16.125 24.8125H16.0937C14.8178 25.0859 13.6385 25.091 12.4375 24.9062C11.616 24.8036 11.2366 23.8884 11.9062 23.2187C13.8745 21.2505 13.8745 18.062 11.9062 16.0937C9.93796 14.1255 6.74953 14.1255 4.78124 16.0937C4.11157 16.7634 3.19642 16.3839 3.09374 15.5625C2.90898 14.3615 2.91407 13.1822 3.18749 11.9062C4.10381 7.41629 7.77466 3.82441 12.25 3.09374C12.7168 3.02459 13.1726 2.98502 13.625 2.96874ZM12 4.99999C10.8954 4.99999 9.99999 5.89542 9.99999 6.99999C9.99999 8.10456 10.8954 8.99999 12 8.99999C13.1046 8.99999 14 8.10456 14 6.99999C14 5.89542 13.1046 4.99999 12 4.99999ZM19 6.99999C17.8954 6.99999 17 7.89542 17 8.99999C17 10.1046 17.8954 11 19 11C20.1046 11 21 10.1046 21 8.99999C21 7.89542 20.1046 6.99999 19 6.99999ZM6.99999 8.99999C5.89542 8.99999 4.99999 9.89543 4.99999 11C4.99999 12.1046 5.89542 13 6.99999 13C8.10456 13 8.99999 12.1046 8.99999 11C8.99999 9.89543 8.10456 8.99999 6.99999 8.99999ZM21 14C19.8954 14 19 14.8954 19 16C19 17.1046 19.8954 18 21 18C22.1046 18 23 17.1046 23 16C23 14.8954 22.1046 14 21 14ZM17 19C15.8954 19 15 19.8954 15 21C15 22.1046 15.8954 23 17 23C18.1046 23 19 22.1046 19 21C19 19.8954 18.1046 19 17 19Z" fill="black"/>
</svg>
