<svg width="30" height="30" viewBox="0 0 30 30" fill="none" xmlns="http://www.w3.org/2000/svg">
<path d="M26.3004 29.5H3.69961C1.93539 29.5 0.5 28.0646 0.5 26.3004V3.69961C0.5 1.93539 1.93539 0.5 3.69961 0.5H26.3004C28.0647 0.5 29.5 1.93539 29.5 3.69961V26.3004C29.5017 28.0646 28.0663 29.5 26.3004 29.5ZM3.69961 2.16906C2.85672 2.16906 2.16911 2.85506 2.16911 3.69957V26.3004C2.16911 27.1449 2.85676 27.8309 3.69961 27.8309H26.3004C27.1449 27.8309 27.831 27.1449 27.831 26.3004V3.69961C27.8326 2.85506 27.1449 2.16911 26.3004 2.16911L3.69961 2.16906Z" fill="black"/>
</svg>
