<svg width="32" height="32" viewBox="0 0 32 32" fill="none" xmlns="http://www.w3.org/2000/svg">
<path d="M19.75 15.67C20.7191 14.8923 21.4229 13.833 21.7642 12.6383C22.1055 11.4435 22.0675 10.1723 21.6553 9.00006C21.2432 7.82786 20.4773 6.81253 19.4634 6.09427C18.4494 5.376 17.2375 4.99023 15.995 4.99023C14.7525 4.99023 13.5406 5.376 12.5266 6.09427C11.5127 6.81253 10.7468 7.82786 10.3347 9.00006C9.92253 10.1723 9.88448 11.4435 10.2258 12.6383C10.5671 13.833 11.2709 14.8923 12.24 15.67C10.1194 16.4413 8.28726 17.8462 6.99214 19.6941C5.69701 21.5419 5.00152 23.7434 5 26V27H27V26C26.9977 23.7422 26.3008 21.5399 25.0038 19.6918C23.7068 17.8438 21.8725 16.4397 19.75 15.67ZM12 11C12 10.2088 12.2346 9.43549 12.6741 8.77769C13.1136 8.1199 13.7384 7.60721 14.4693 7.30446C15.2002 7.00171 16.0044 6.92249 16.7804 7.07683C17.5563 7.23118 18.269 7.61214 18.8284 8.17155C19.3878 8.73096 19.7688 9.44369 19.9231 10.2196C20.0775 10.9955 19.9983 11.7998 19.6955 12.5307C19.3928 13.2616 18.8801 13.8863 18.2223 14.3259C17.5645 14.7654 16.7911 15 16 15C14.9391 15 13.9217 14.5785 13.1716 13.8284C12.4214 13.0783 12 12.0608 12 11ZM7.06 25C7.3045 22.7986 8.35218 20.7647 10.0026 19.2874C11.6529 17.8102 13.7901 16.9934 16.005 16.9934C18.2199 16.9934 20.3571 17.8102 22.0075 19.2874C23.6578 20.7647 24.7055 22.7986 24.95 25H7.06Z" fill="#606161"/>
</svg>
